<mxfile host="app.diagrams.net" agent="Mozilla/5.0 (Windows NT 10.0; Win64; x64; rv:139.0) Gecko/20100101 Firefox/139.0" version="27.1.4">
  <diagram name="Page-1" id="b5b7bab2-c9e2-2cf4-8b2a-24fd1a2a6d21">
    <mxGraphModel dx="1964" dy="1113" grid="1" gridSize="10" guides="1" tooltips="1" connect="1" arrows="1" fold="1" page="1" pageScale="1" pageWidth="827" pageHeight="1169" background="none" math="0" shadow="0">
      <root>
        <mxCell id="0" />
        <mxCell id="1" parent="0" />
        <mxCell id="5MScCpEXEO7Ixxf4Bc4k-33" value="" style="html=1;whiteSpace=wrap;fillColor=none;" vertex="1" parent="1">
          <mxGeometry x="170" y="20" width="980" height="900" as="geometry" />
        </mxCell>
        <mxCell id="5MScCpEXEO7Ixxf4Bc4k-1" value="Paciente" style="shape=umlActor;verticalLabelPosition=bottom;verticalAlign=top;html=1;" vertex="1" parent="1">
          <mxGeometry x="100" y="230" width="30" height="60" as="geometry" />
        </mxCell>
        <mxCell id="5MScCpEXEO7Ixxf4Bc4k-2" value="Terapeuta" style="shape=umlActor;verticalLabelPosition=bottom;verticalAlign=top;html=1;" vertex="1" parent="1">
          <mxGeometry x="100" y="745" width="30" height="60" as="geometry" />
        </mxCell>
        <mxCell id="5MScCpEXEO7Ixxf4Bc4k-4" value="Listar Partidas" style="ellipse;whiteSpace=wrap;html=1;fillColor=none;" vertex="1" parent="1">
          <mxGeometry x="290" y="135" width="180" height="60" as="geometry" />
        </mxCell>
        <mxCell id="5MScCpEXEO7Ixxf4Bc4k-8" value="" style="endArrow=none;html=1;rounded=0;entryX=0;entryY=0.5;entryDx=0;entryDy=0;" edge="1" parent="1" target="5MScCpEXEO7Ixxf4Bc4k-4">
          <mxGeometry width="50" height="50" relative="1" as="geometry">
            <mxPoint x="140" y="270" as="sourcePoint" />
            <mxPoint x="190" y="220" as="targetPoint" />
          </mxGeometry>
        </mxCell>
        <mxCell id="5MScCpEXEO7Ixxf4Bc4k-9" value="" style="endArrow=none;dashed=1;html=1;dashPattern=1 3;strokeWidth=2;rounded=0;strokeColor=default;startArrow=open;startFill=0;entryX=0;entryY=0.5;entryDx=0;entryDy=0;" edge="1" parent="1" target="5MScCpEXEO7Ixxf4Bc4k-10">
          <mxGeometry width="50" height="50" relative="1" as="geometry">
            <mxPoint x="470" y="155" as="sourcePoint" />
            <mxPoint x="600" y="75" as="targetPoint" />
          </mxGeometry>
        </mxCell>
        <mxCell id="5MScCpEXEO7Ixxf4Bc4k-11" value="&amp;lt;&amp;lt;extends&amp;gt;&amp;gt;" style="edgeLabel;html=1;align=center;verticalAlign=middle;resizable=0;points=[];" vertex="1" connectable="0" parent="5MScCpEXEO7Ixxf4Bc4k-9">
          <mxGeometry x="0.0563" y="-6" relative="1" as="geometry">
            <mxPoint as="offset" />
          </mxGeometry>
        </mxCell>
        <mxCell id="5MScCpEXEO7Ixxf4Bc4k-10" value="Cargar partida" style="ellipse;whiteSpace=wrap;html=1;fillColor=none;" vertex="1" parent="1">
          <mxGeometry x="770" y="30" width="180" height="60" as="geometry" />
        </mxCell>
        <mxCell id="5MScCpEXEO7Ixxf4Bc4k-12" value="Borrar partida" style="ellipse;whiteSpace=wrap;html=1;fillColor=none;" vertex="1" parent="1">
          <mxGeometry x="770" y="130" width="180" height="60" as="geometry" />
        </mxCell>
        <mxCell id="5MScCpEXEO7Ixxf4Bc4k-14" value="" style="endArrow=none;dashed=1;html=1;dashPattern=1 3;strokeWidth=2;rounded=0;strokeColor=default;startArrow=open;startFill=0;exitX=1;exitY=0.5;exitDx=0;exitDy=0;entryX=0;entryY=0.5;entryDx=0;entryDy=0;" edge="1" parent="1" source="5MScCpEXEO7Ixxf4Bc4k-4" target="5MScCpEXEO7Ixxf4Bc4k-12">
          <mxGeometry width="50" height="50" relative="1" as="geometry">
            <mxPoint x="520" y="245" as="sourcePoint" />
            <mxPoint x="650" y="165" as="targetPoint" />
          </mxGeometry>
        </mxCell>
        <mxCell id="5MScCpEXEO7Ixxf4Bc4k-15" value="&amp;lt;&amp;lt;extends&amp;gt;&amp;gt;" style="edgeLabel;html=1;align=center;verticalAlign=middle;resizable=0;points=[];" vertex="1" connectable="0" parent="5MScCpEXEO7Ixxf4Bc4k-14">
          <mxGeometry x="0.0563" y="-6" relative="1" as="geometry">
            <mxPoint as="offset" />
          </mxGeometry>
        </mxCell>
        <mxCell id="5MScCpEXEO7Ixxf4Bc4k-16" value="" style="endArrow=none;html=1;rounded=0;entryX=0;entryY=0.5;entryDx=0;entryDy=0;" edge="1" parent="1" target="5MScCpEXEO7Ixxf4Bc4k-17">
          <mxGeometry width="50" height="50" relative="1" as="geometry">
            <mxPoint x="140" y="270" as="sourcePoint" />
            <mxPoint x="320" y="400" as="targetPoint" />
          </mxGeometry>
        </mxCell>
        <mxCell id="5MScCpEXEO7Ixxf4Bc4k-17" value="Mostrar creditos" style="ellipse;whiteSpace=wrap;html=1;fillColor=none;" vertex="1" parent="1">
          <mxGeometry x="290" y="275" width="180" height="60" as="geometry" />
        </mxCell>
        <mxCell id="5MScCpEXEO7Ixxf4Bc4k-19" value="Mostrar resultados históricos de sesión" style="ellipse;whiteSpace=wrap;html=1;fillColor=none;" vertex="1" parent="1">
          <mxGeometry x="620" y="360" width="180" height="60" as="geometry" />
        </mxCell>
        <mxCell id="5MScCpEXEO7Ixxf4Bc4k-20" value="Elegir nivel" style="ellipse;whiteSpace=wrap;html=1;fillColor=none;" vertex="1" parent="1">
          <mxGeometry x="290" y="490" width="180" height="60" as="geometry" />
        </mxCell>
        <mxCell id="5MScCpEXEO7Ixxf4Bc4k-21" value="" style="endArrow=none;html=1;rounded=0;entryX=0;entryY=0.5;entryDx=0;entryDy=0;" edge="1" parent="1" target="5MScCpEXEO7Ixxf4Bc4k-20">
          <mxGeometry width="50" height="50" relative="1" as="geometry">
            <mxPoint x="140" y="270" as="sourcePoint" />
            <mxPoint x="340" y="430" as="targetPoint" />
          </mxGeometry>
        </mxCell>
        <mxCell id="5MScCpEXEO7Ixxf4Bc4k-23" value="" style="endArrow=open;dashed=1;html=1;dashPattern=1 3;strokeWidth=2;rounded=0;strokeColor=default;startArrow=none;startFill=0;exitX=1;exitY=0.5;exitDx=0;exitDy=0;entryX=0;entryY=0.5;entryDx=0;entryDy=0;endFill=0;" edge="1" parent="1" source="5MScCpEXEO7Ixxf4Bc4k-20" target="5MScCpEXEO7Ixxf4Bc4k-19">
          <mxGeometry width="50" height="50" relative="1" as="geometry">
            <mxPoint x="470" y="455" as="sourcePoint" />
            <mxPoint x="610" y="375" as="targetPoint" />
          </mxGeometry>
        </mxCell>
        <mxCell id="5MScCpEXEO7Ixxf4Bc4k-24" value="&amp;lt;&amp;lt;includes&amp;gt;&amp;gt;" style="edgeLabel;html=1;align=center;verticalAlign=middle;resizable=0;points=[];" vertex="1" connectable="0" parent="5MScCpEXEO7Ixxf4Bc4k-23">
          <mxGeometry x="0.0563" y="-6" relative="1" as="geometry">
            <mxPoint as="offset" />
          </mxGeometry>
        </mxCell>
        <mxCell id="5MScCpEXEO7Ixxf4Bc4k-25" value="Exportar datos a CSV" style="ellipse;whiteSpace=wrap;html=1;fillColor=none;" vertex="1" parent="1">
          <mxGeometry x="950" y="245" width="180" height="60" as="geometry" />
        </mxCell>
        <mxCell id="5MScCpEXEO7Ixxf4Bc4k-28" value="" style="endArrow=none;html=1;rounded=0;entryX=0;entryY=0.5;entryDx=0;entryDy=0;" edge="1" parent="1" target="5MScCpEXEO7Ixxf4Bc4k-30">
          <mxGeometry width="50" height="50" relative="1" as="geometry">
            <mxPoint x="150" y="775" as="sourcePoint" />
            <mxPoint x="380" y="735" as="targetPoint" />
          </mxGeometry>
        </mxCell>
        <mxCell id="5MScCpEXEO7Ixxf4Bc4k-30" value="Consultar datos del paciente" style="ellipse;whiteSpace=wrap;html=1;fillColor=none;" vertex="1" parent="1">
          <mxGeometry x="380" y="760" width="180" height="60" as="geometry" />
        </mxCell>
        <mxCell id="5MScCpEXEO7Ixxf4Bc4k-31" value="" style="endArrow=none;dashed=1;html=1;dashPattern=1 3;strokeWidth=2;rounded=0;strokeColor=default;startArrow=open;startFill=0;exitX=1;exitY=0.5;exitDx=0;exitDy=0;entryX=0;entryY=0.5;entryDx=0;entryDy=0;" edge="1" parent="1" source="5MScCpEXEO7Ixxf4Bc4k-30" target="5MScCpEXEO7Ixxf4Bc4k-25">
          <mxGeometry width="50" height="50" relative="1" as="geometry">
            <mxPoint x="590" y="605" as="sourcePoint" />
            <mxPoint x="730" y="655" as="targetPoint" />
          </mxGeometry>
        </mxCell>
        <mxCell id="5MScCpEXEO7Ixxf4Bc4k-32" value="&amp;lt;&amp;lt;extends&amp;gt;&amp;gt;" style="edgeLabel;html=1;align=center;verticalAlign=middle;resizable=0;points=[];" vertex="1" connectable="0" parent="5MScCpEXEO7Ixxf4Bc4k-31">
          <mxGeometry x="0.0563" y="-6" relative="1" as="geometry">
            <mxPoint as="offset" />
          </mxGeometry>
        </mxCell>
        <mxCell id="5MScCpEXEO7Ixxf4Bc4k-34" value="" style="endArrow=open;dashed=1;html=1;dashPattern=1 3;strokeWidth=2;rounded=0;strokeColor=default;startArrow=none;startFill=0;exitX=0.946;exitY=0.7;exitDx=0;exitDy=0;entryX=0;entryY=0.5;entryDx=0;entryDy=0;endFill=0;exitPerimeter=0;" edge="1" parent="1" source="5MScCpEXEO7Ixxf4Bc4k-4" target="5MScCpEXEO7Ixxf4Bc4k-25">
          <mxGeometry width="50" height="50" relative="1" as="geometry">
            <mxPoint x="710" y="165" as="sourcePoint" />
            <mxPoint x="1010" y="160" as="targetPoint" />
          </mxGeometry>
        </mxCell>
        <mxCell id="5MScCpEXEO7Ixxf4Bc4k-35" value="&amp;lt;&amp;lt;includes&amp;gt;&amp;gt;" style="edgeLabel;html=1;align=center;verticalAlign=middle;resizable=0;points=[];" vertex="1" connectable="0" parent="5MScCpEXEO7Ixxf4Bc4k-34">
          <mxGeometry x="0.0563" y="-6" relative="1" as="geometry">
            <mxPoint as="offset" />
          </mxGeometry>
        </mxCell>
        <mxCell id="5MScCpEXEO7Ixxf4Bc4k-37" value="Realizar sesión de juego" style="ellipse;whiteSpace=wrap;html=1;fillColor=none;" vertex="1" parent="1">
          <mxGeometry x="290" y="630" width="180" height="60" as="geometry" />
        </mxCell>
        <mxCell id="5MScCpEXEO7Ixxf4Bc4k-38" value="" style="endArrow=none;html=1;rounded=0;entryX=0;entryY=0.5;entryDx=0;entryDy=0;" edge="1" parent="1" target="5MScCpEXEO7Ixxf4Bc4k-37">
          <mxGeometry width="50" height="50" relative="1" as="geometry">
            <mxPoint x="140" y="270" as="sourcePoint" />
            <mxPoint x="290" y="525" as="targetPoint" />
          </mxGeometry>
        </mxCell>
        <mxCell id="5MScCpEXEO7Ixxf4Bc4k-40" value="" style="endArrow=none;dashed=1;html=1;dashPattern=1 3;strokeWidth=2;rounded=0;strokeColor=default;startArrow=open;startFill=0;exitX=1;exitY=0.5;exitDx=0;exitDy=0;entryX=0;entryY=0.5;entryDx=0;entryDy=0;" edge="1" parent="1" source="5MScCpEXEO7Ixxf4Bc4k-37" target="5MScCpEXEO7Ixxf4Bc4k-42">
          <mxGeometry width="50" height="50" relative="1" as="geometry">
            <mxPoint x="470" y="665" as="sourcePoint" />
            <mxPoint x="770" y="620" as="targetPoint" />
          </mxGeometry>
        </mxCell>
        <mxCell id="5MScCpEXEO7Ixxf4Bc4k-41" value="&amp;lt;&amp;lt;extends&amp;gt;&amp;gt;" style="edgeLabel;html=1;align=center;verticalAlign=middle;resizable=0;points=[];" vertex="1" connectable="0" parent="5MScCpEXEO7Ixxf4Bc4k-40">
          <mxGeometry x="0.0563" y="-6" relative="1" as="geometry">
            <mxPoint as="offset" />
          </mxGeometry>
        </mxCell>
        <mxCell id="5MScCpEXEO7Ixxf4Bc4k-42" value="Palacio de Sahriar" style="ellipse;whiteSpace=wrap;html=1;fillColor=none;" vertex="1" parent="1">
          <mxGeometry x="770" y="580" width="180" height="60" as="geometry" />
        </mxCell>
        <mxCell id="5MScCpEXEO7Ixxf4Bc4k-43" value="Nuestra Señora de la Merced" style="ellipse;whiteSpace=wrap;html=1;fillColor=none;" vertex="1" parent="1">
          <mxGeometry x="770" y="670" width="180" height="60" as="geometry" />
        </mxCell>
        <mxCell id="5MScCpEXEO7Ixxf4Bc4k-44" value="" style="endArrow=none;dashed=1;html=1;dashPattern=1 3;strokeWidth=2;rounded=0;strokeColor=default;startArrow=open;startFill=0;entryX=0;entryY=0.5;entryDx=0;entryDy=0;exitX=1;exitY=0.5;exitDx=0;exitDy=0;" edge="1" parent="1" source="5MScCpEXEO7Ixxf4Bc4k-37" target="5MScCpEXEO7Ixxf4Bc4k-43">
          <mxGeometry width="50" height="50" relative="1" as="geometry">
            <mxPoint x="550" y="700" as="sourcePoint" />
            <mxPoint x="870" y="640" as="targetPoint" />
          </mxGeometry>
        </mxCell>
        <mxCell id="5MScCpEXEO7Ixxf4Bc4k-45" value="&amp;lt;&amp;lt;extends&amp;gt;&amp;gt;" style="edgeLabel;html=1;align=center;verticalAlign=middle;resizable=0;points=[];" vertex="1" connectable="0" parent="5MScCpEXEO7Ixxf4Bc4k-44">
          <mxGeometry x="0.0563" y="-6" relative="1" as="geometry">
            <mxPoint as="offset" />
          </mxGeometry>
        </mxCell>
      </root>
    </mxGraphModel>
  </diagram>
</mxfile>
